<svg width="159" height="159" viewBox="0 0 159 159" fill="none" xmlns="http://www.w3.org/2000/svg">
<g clip-path="url(#clip0_535_12638)">
<path d="M79.487 159C58.2827 159 38.3364 150.713 23.3053 135.682C8.27422 120.651 0 100.691 0 79.487C0 35.6518 35.6648 0 79.487 0C100.691 0 120.651 8.28719 135.682 23.3183C150.713 38.3493 158.987 58.3086 158.987 79.5C158.987 100.704 150.7 120.664 135.669 135.695C120.638 150.713 100.678 158.987 79.487 159ZM79.487 1.01158C36.2224 1.01158 1.01158 36.2095 1.01158 79.487C1.01158 100.419 9.18206 120.132 24.0186 134.968C38.8551 149.805 58.5551 157.988 79.487 157.988C100.419 157.988 120.119 149.818 134.955 134.981C149.805 120.145 157.975 100.432 157.988 79.5C157.988 58.568 149.818 38.8681 134.968 24.0316C120.145 9.18206 100.432 1.01158 79.5 1.01158H79.487Z" fill="white"/>
<path d="M79.5124 4.08399C37.856 4.07102 4.08469 37.8293 4.08469 79.4858C4.08469 121.142 37.843 154.901 79.4865 154.914C121.143 154.914 154.901 121.155 154.914 79.5117C154.914 37.8553 121.156 4.09696 79.5124 4.08399ZM79.4476 100.547C52.9778 100.547 31.5271 79.0837 31.5271 52.614C31.5271 26.1443 52.9908 4.68056 79.4605 4.69353C105.93 4.69353 127.381 26.1572 127.381 52.627C127.381 79.0967 105.917 100.547 79.4476 100.547Z" fill="white"/>
<path d="M79.5 155.145C59.2943 155.145 40.2947 147.273 26.0028 132.981C11.711 118.689 3.85178 99.6898 3.85178 79.4841C3.85178 37.7758 37.7917 3.83594 79.5 3.83594C121.221 3.83594 155.148 37.7888 155.148 79.4971C155.148 121.205 121.208 155.145 79.487 155.145M79.487 4.31579C38.051 4.31579 4.33163 38.0352 4.31866 79.4841C4.31866 99.5602 12.126 118.443 26.3271 132.644C40.5281 146.845 59.398 154.665 79.487 154.665C120.936 154.665 154.655 120.946 154.668 79.4971C154.668 38.0482 120.949 4.31579 79.5 4.30282L79.487 4.31579ZM79.4351 100.779C52.8746 100.779 31.2683 79.1729 31.2812 52.6124C31.2812 39.7471 36.3002 27.647 45.3915 18.5558C54.4828 9.46449 66.5829 4.45845 79.4481 4.45845C92.3134 4.45845 104.413 9.47745 113.505 18.5687C122.596 27.673 127.602 39.7601 127.602 52.6253C127.602 79.1859 105.996 100.779 79.4351 100.779ZM79.4351 100.299C105.736 100.299 127.122 78.9135 127.122 52.6124C127.122 39.8768 122.168 27.8934 113.155 18.893C104.154 9.87949 92.1707 4.92533 79.4351 4.92533C66.6996 4.92533 54.7292 9.87949 45.7157 18.893C36.7023 27.8934 31.7481 39.8768 31.7481 52.6124C31.7481 78.9005 53.134 100.299 79.4351 100.299Z" fill="white"/>
<path d="M108.211 99.9029C108.211 99.9029 112.296 100.979 116.589 98.5801C116.589 98.5801 116.563 100.525 117.004 101.005C117.328 101.368 132.878 116.036 132.878 116.036L129.713 120.173L108.224 100.162C108.224 100.162 107.99 99.851 108.224 99.9029" fill="#076D38"/>
<path d="M106.968 103.375C106.968 103.375 107.811 107.707 106.047 111.883L108.226 112.116L114.309 117.628C114.309 117.628 109.445 121.947 105.762 124.022C105.762 124.022 105.451 124.255 105.334 124.022C105.217 123.788 101.041 117.472 101.041 117.472C101.041 117.472 100.393 123.062 98.4734 125.137V125.669C98.4734 125.669 99.2775 125.63 99.887 125.902C100.497 126.175 100.652 126.395 100.652 126.395L104.984 133.139C104.984 133.139 105.165 135.201 104.906 135.966C104.634 136.731 104.297 138.339 100.458 139.26C100.458 139.26 100.146 140.414 104.517 140.103C108.797 139.805 111.235 135.279 110.171 131.025C110.158 130.934 110.133 130.856 110.107 130.766C110.107 130.766 120.028 124.514 123.763 119.521C123.789 119.483 123.815 119.457 123.841 119.418C123.841 119.418 108.46 104.4 106.929 103.388" fill="#076D38"/>
<path d="M92.2229 119.352C92.2229 119.352 92.5341 119.3 92.586 119.715C92.6379 120.117 97.9941 136.354 97.9941 136.354C97.9941 136.354 79.7467 143.812 57.7642 135.304L66.5961 108.277C66.5961 108.277 66.7258 108.173 66.7258 108.277C66.7258 108.38 68.4636 113.231 71.3687 115.072L71.3428 115.358C71.3428 115.358 69.8384 115.513 69.2288 117.394C68.6193 119.287 65.4548 128.768 65.4548 129.066C65.4548 129.364 66.0255 129.377 66.3367 129.455C66.648 129.533 71.3817 130.946 77.8791 131.063C84.3766 131.18 90.2386 130.039 90.2386 130.039C90.2386 130.039 90.1219 127.51 87.6707 126.511L87.5151 126.135C87.5151 126.135 91.3799 123.749 92.2229 119.365" fill="#076D38"/>
<path d="M55.6247 114.643C49.1402 114.228 45.0031 116.783 45.0031 116.783C45.7553 114.967 45.7034 111.504 45.7034 111.504C42.7594 113.45 40.0359 112.957 39.0762 112.762C38.1165 112.568 38.5704 113.229 38.5704 113.229C38.5964 113.281 38.6223 113.333 38.6353 113.385C41.0475 118.936 35.5357 119.74 35.5357 119.74C30.8669 119.273 31.5931 115.291 31.632 114.838C31.6709 114.384 32.3583 110.817 38.4408 109.365C44.5362 107.912 43.1874 107.951 43.4209 107.756C43.6543 107.562 44.601 106.641 44.2249 106.109C43.8359 105.578 43.1096 106.109 43.1096 106.109C42.9151 106.187 42.2277 106.304 42.2277 106.304C35.6784 107.303 33.9016 108.21 33.9016 108.21C26.2369 112.296 28.0266 118.988 28.0266 118.988C30.828 129.259 39.6598 124.033 39.6598 124.033C46.1443 130.673 55.3264 133.993 55.3264 133.993C55.3264 133.993 59.7748 120.414 59.8656 120.012C59.9693 119.597 62.0573 115.058 55.5728 114.656M53.8868 120.777C53.5237 122.1 53.1735 123.656 52.8104 123.799L47.0911 119.701C47.0911 119.701 49.9054 118.676 52.8104 119.091C52.8104 119.091 54.237 119.454 53.8868 120.777Z" fill="#076D38"/>
<path d="M51.2791 108.677C51.2791 106.927 52.7056 105.5 54.4565 105.5C56.2073 105.5 57.6209 106.927 57.6209 108.677C57.6209 110.428 56.1943 111.842 54.4565 111.842C52.7186 111.842 51.292 110.415 51.292 108.677" fill="#076D38"/>
<path d="M70.8748 144.061C70.8748 142.31 72.3014 140.896 74.0392 140.896C75.7771 140.896 77.2167 142.31 77.2167 144.061C77.2167 145.812 75.7901 147.238 74.0392 147.238C72.2884 147.238 70.8748 145.812 70.8748 144.061Z" fill="#076D38"/>
<path d="M81.7557 143.905C81.7557 142.154 83.1823 140.74 84.9201 140.74C86.658 140.74 88.0845 142.167 88.0845 143.905C88.0845 145.643 86.658 147.069 84.9071 147.069C83.1563 147.069 81.7427 145.643 81.7427 143.905" fill="#076D38"/>
<path d="M106.321 70.1992L110.289 54.0528C110.289 54.0528 111.586 53.0801 115.14 53.0801C118.395 53.0801 120.029 53.9749 120.029 53.9749L122.519 65.3877C122.519 65.3877 119.459 74.6216 115.97 78.8625C113.298 82.1177 106.321 70.1862 106.321 70.1862" fill="white"/>
<path d="M114.841 79.5493C111.69 79.5493 106.45 70.6396 106.217 70.2506L106.191 70.2117L110.185 53.9874L110.211 53.9615C110.211 53.9615 111.573 52.9629 115.139 52.9629C118.395 52.9629 120.016 53.8448 120.081 53.8837L120.132 53.9096L122.635 65.4002V65.4261C122.597 65.5169 119.51 74.7249 116.06 78.9398C115.736 79.3418 115.321 79.5493 114.841 79.5493ZM106.45 70.1857C106.839 70.8471 111.936 79.3289 114.841 79.3289C115.256 79.3289 115.593 79.1603 115.879 78.8101C119.212 74.7378 122.207 65.9708 122.402 65.4002L119.925 54.0782C119.653 53.9356 118.044 53.2093 115.152 53.2093C111.975 53.2093 110.613 54.0004 110.393 54.1431L106.45 70.1987V70.1857Z" fill="#076D38"/>
<path d="M120.455 53.6384C120.455 53.6384 118.173 52.5879 115.138 52.5879C112.103 52.5879 109.86 53.6384 109.86 53.6384L110.314 54.0015C110.314 54.0015 112.051 53.0807 115.164 53.0807C118.277 53.0807 120.014 53.9367 120.014 53.9367L120.455 53.6384Z" fill="#076D38"/>
<path d="M120.301 53.4571L118.952 47.1152H118.667V47.6599H118.421V47.8674H118.239V47.8026H118.006V47.4913L117.876 47.3746H117.694V46.7781H117.422V47.2838H117.215L117.098 47.4006V47.5951H116.89V47.5173H116.774V47.2449L116.657 47.1282H116.501V46.5446H116.19V47.1023L115.918 47.219V47.4524H115.529V47.1671L115.412 47.0504H115.256V46.4668H114.958V47.0634H114.802L114.647 47.219V47.4265H114.31V47.1412L114.219 47.0504H114.024V46.5446H113.739V47.1152H113.583L113.441 47.2579V47.4524H113.22V47.5562H113.052V47.3617L112.948 47.2579H112.766V46.7521H112.507V47.3487H112.351L112.209 47.4913V47.7896H111.988V47.8415H111.858V47.621H111.56V47.1023H111.249L109.965 53.4441C109.965 53.4441 111.936 52.5752 115.075 52.5752C118.226 52.5752 120.249 53.4441 120.249 53.4441" fill="white"/>
<path d="M109.861 53.6505L111.197 46.9844H111.716V47.5031H112.001V47.6717H112.131V47.4383L112.338 47.2308H112.416V46.6342H112.909V47.14H113.025L113.194 47.3086H113.337V47.2049L113.557 46.9844H113.635V46.4138H114.154V46.9195H114.283L114.439 47.0752V47.2956H114.543V47.153L114.763 46.9325H114.854V46.3359H115.373V46.9195H115.464L115.645 47.1011V47.3086H115.801V47.1141L116.073 46.9974V46.4008H116.618V46.9844H116.709L116.89 47.166V47.3735H116.981V47.3086L117.163 47.127H117.305V46.6213H117.811V47.2178H117.928L118.109 47.4124V47.6588H118.291V47.5161H118.537V46.9714H119.03L120.431 53.6245L120.223 53.5337C120.223 53.5337 118.174 52.6778 115.088 52.6778C112.001 52.6778 110.043 53.5208 110.017 53.5337L109.822 53.6245L109.861 53.6505ZM111.391 47.2178L110.172 53.2614C110.756 53.0409 112.559 52.4573 115.126 52.4573C117.694 52.4573 119.549 53.0409 120.145 53.2614L118.875 47.2178H118.797V47.7625H118.55V47.97H118.135V47.9052H117.902V47.5291L117.85 47.4772H117.604V46.8806H117.565V47.3864H117.292L117.24 47.4383V47.7107H116.799V47.6328H116.683V47.2956L116.631 47.2438H116.397V46.6602H116.32V47.1789L116.047 47.2956V47.568H115.438V47.2178L115.386 47.166H115.165V46.5823H115.101V47.1919H114.867L114.776 47.2827V47.555H114.219V47.2049L114.193 47.1789H113.92V46.6731H113.856V47.2438H113.635L113.557 47.3216V47.581H113.337V47.6847H112.948V47.4253L112.922 47.3864H112.675V46.8806H112.636V47.4772H112.416L112.351 47.555V47.9182H112.131V47.97H111.768V47.7496H111.469V47.2308H111.365L111.391 47.2178Z" fill="#076D38"/>
<path d="M115.723 51.5254H114.555V52.5888H115.723V51.5254Z" fill="white"/>
<path d="M115.84 52.7051H114.439V51.4082H115.84V52.7051ZM114.672 52.4717H115.606V51.6287H114.672V52.4717Z" fill="#076D38"/>
<path d="M52.0702 70.1992L48.1017 54.0528C48.1017 54.0528 46.8048 53.0801 43.2513 53.0801C39.9961 53.0801 38.362 53.9749 38.362 53.9749L35.8719 65.3877C35.8719 65.3877 38.9326 74.6216 42.4083 78.8625C45.0799 82.1177 52.0702 70.1992 52.0702 70.1992Z" fill="white"/>
<path d="M43.5356 79.5396C43.0558 79.5396 42.6408 79.3321 42.3165 78.93C38.8668 74.7151 35.7801 65.5071 35.7542 65.4163V65.3904L38.2572 53.8999L38.3091 53.8739C38.374 53.835 39.9951 52.9531 43.2503 52.9531C46.8168 52.9531 48.1266 53.9128 48.1785 53.9517L48.2174 53.9777V54.0166L52.1989 70.2019L52.173 70.2408C51.9525 70.6169 46.7001 79.5266 43.5486 79.5266M35.9877 65.3645C36.1822 65.9481 39.178 74.7151 42.4981 78.7744C42.7834 79.1246 43.1206 79.2932 43.5356 79.2932C46.4536 79.2932 51.5505 70.8114 51.9395 70.163L47.997 54.1074C47.7765 53.9647 46.4147 53.1736 43.2503 53.1736C40.3582 53.1736 38.7371 53.8999 38.4647 54.0425L35.9877 65.3645Z" fill="#076D38"/>
<path d="M37.9343 53.6384C37.9343 53.6384 40.2168 52.5879 43.2516 52.5879C46.2863 52.5879 48.5429 53.6384 48.5429 53.6384L48.089 54.0015C48.089 54.0015 46.3512 53.0807 43.2386 53.0807C40.1261 53.0807 38.3882 53.9367 38.3882 53.9367L37.9473 53.6384H37.9343Z" fill="#076D38"/>
<path d="M38.0896 53.4454L39.4384 47.1035H39.7237V47.6482H39.9701V47.8557H40.1516V47.7909H40.3851V47.4796L40.5148 47.3499H40.6963V46.7534H40.9687V47.2592H41.1762L41.2929 47.3759V47.5704H41.5004V47.4926H41.6171V47.2332L41.7339 47.1165H41.9025V46.5329H42.2137V47.0906L42.4861 47.2073V47.4407H42.8622V47.1554L42.9789 47.0387H43.1345V46.4551H43.4328V47.0517H43.5884L43.7441 47.2073V47.4148H44.0813V47.1295L44.172 47.0387H44.3666V46.5329H44.6519V47.1035H44.7946L44.9372 47.2462V47.4407H45.1577V47.5445H45.3263V47.3499L45.43 47.2462H45.6116V46.7404H45.8839V47.337H46.0396L46.1822 47.4796V47.7779H46.4027V47.8298H46.5324V47.6093H46.8307V47.0906H47.1419L48.4259 53.4324C48.4259 53.4324 46.4546 52.5635 43.3161 52.5635C40.1776 52.5635 38.1415 53.4324 38.1415 53.4324" fill="white"/>
<path d="M48.5296 53.6512L48.3221 53.5604C48.3221 53.5604 46.3379 52.7044 43.2512 52.7044C40.1646 52.7044 38.1414 53.5604 38.1155 53.5604L37.908 53.6512L39.3216 46.9981H39.8144V47.5428H40.0609V47.6854H40.2424V47.439L40.424 47.2445H40.5407V46.6479H41.0465V47.1537H41.1892L41.3707 47.3353V47.4001H41.4745V47.1926L41.656 47.011H41.7468V46.4274H42.2915V47.011L42.5639 47.1277V47.3223H42.7195V47.1148L42.9011 46.9332H42.9919V46.3496H43.5236V46.9462H43.6144L43.8478 47.1667V47.3093H43.9516V47.0888L44.1072 46.9332H44.2369V46.4274H44.7556V46.9981H44.8335L45.0539 47.2185V47.3353H45.1966L45.3652 47.1537H45.4819V46.6479H45.9747V47.2445H46.0525L46.26 47.452V47.6854H46.3768V47.5168H46.6751V46.9981H47.1938L48.5296 53.6641V53.6512ZM43.2642 52.471C45.8321 52.471 47.6348 53.0546 48.2184 53.2751L46.9993 47.2315H46.8955V47.7503H46.6102V47.9707H46.2471V47.9189H46.0266V47.5557L45.9618 47.4779H45.7413V46.8813H45.7024V47.3871H45.456L45.43 47.426V47.6854H45.041V47.5817H44.8205V47.3223L44.7427 47.2445H44.5352V46.6738H44.4703V47.1796H44.198V47.5557H43.6144V47.2834L43.5236 47.1926H43.3031V46.583H43.2383V47.1667H43.0178L42.9659 47.2185V47.5687H42.3564V47.2963L42.084 47.1796V46.6738H42.0062V47.2574H41.7728L41.7209 47.3093V47.6465H41.6042V47.7243H41.1632V47.452L41.1114 47.4001H40.839V46.8943H40.8001V47.4909H40.5537L40.5018 47.5428V47.9189H40.2684V47.9837H39.8663V47.7762H39.6199V47.2315H39.5421L38.2582 53.2751C38.8547 53.0676 40.7093 52.4839 43.2772 52.4839" fill="#076D38"/>
<path d="M43.8223 51.5137H42.6551V52.5771H43.8223V51.5137Z" fill="white"/>
<path d="M43.9381 52.6914H42.5374V51.3945H43.9381V52.6914ZM42.7709 52.458H43.7046V51.615H42.7709V52.458Z" fill="#076D38"/>
<path d="M96.6452 48.5312L62.1995 48.8684L43.7316 58.699L41.89 76.8685C41.89 76.8685 50.7997 97.3207 81.8086 97.6968" fill="white"/>
<path d="M81.8079 97.9261C65.7134 97.7315 55.6753 92.0511 50.0727 87.3174C44.0032 82.1817 41.7077 77.0071 41.6818 76.9552L41.6559 76.9033V76.8514L43.5104 58.5522L62.1339 48.6438H62.1858L96.6315 48.3066V48.7606L62.2506 49.0978L43.9384 58.8375L42.1098 76.8255C42.3692 77.3832 44.7036 82.1947 50.371 86.9802C55.9088 91.6491 65.856 97.2776 81.7949 97.4721V97.9261H81.8079Z" fill="#076D38"/>
<path d="M81.8091 97.7097C81.8091 97.7097 104.323 97.7097 117.24 77.089L115.204 58.6082L96.6456 48.5312" fill="white"/>
<path d="M81.8091 97.9255V97.4716C81.8091 97.4716 87.4895 97.4457 94.6224 94.9037C101.172 92.5693 110.367 87.5762 117.007 77.0324L114.984 58.7461L96.5419 48.7341L96.7623 48.332L115.425 58.4608L117.487 77.1362L117.435 77.201C110.73 87.9134 101.405 92.9713 94.7651 95.3317C87.5673 97.8866 81.8739 97.9125 81.8091 97.9125" fill="#076D38"/>
<path d="M94.4534 39.2819C94.4534 39.2819 89.4733 36.5195 79.5131 36.5195C68.6191 36.5195 64.6765 39.5024 64.6765 39.5024L52.5375 88.8624C60.0725 94.4132 69.3713 97.6943 79.4612 97.6943C89.8753 97.6943 98.8887 94.6336 106.54 88.7457L94.4663 39.2819H94.4534Z" fill="white"/>
<path d="M79.4346 97.9295C69.6171 97.9295 60.2664 94.8558 52.3813 89.0587L52.2645 88.9679L52.3034 88.8253L64.4684 39.3874L64.5332 39.3355C64.7018 39.2058 68.6703 36.3008 79.5124 36.3008H79.5384C89.4337 36.3008 94.5175 39.0632 94.5694 39.0891L94.6602 39.141L94.6861 39.2318L106.799 88.8512L106.682 88.942C98.914 94.9207 89.7579 97.9425 79.4476 97.9425M52.7833 88.7864C60.5517 94.4797 69.7727 97.4886 79.4476 97.4886C89.5893 97.4886 98.6157 94.5187 106.28 88.6696L94.2711 39.4523C93.5708 39.0891 88.6167 36.7677 79.5513 36.7677H79.5254C69.5652 36.7677 65.441 39.2966 64.8834 39.6598L52.7963 88.7864H52.7833Z" fill="#076D38"/>
<path d="M95.711 38.2339C95.711 38.2339 88.7337 35.0176 79.4608 35.0176C70.188 35.0176 63.3015 38.2339 63.3015 38.2339L64.7021 39.3363C64.7021 39.3363 70.0064 36.522 79.5257 36.535C89.032 36.535 94.3752 39.1677 94.3752 39.1677L95.7369 38.2469L95.711 38.2339Z" fill="#076D38"/>
<path d="M95.5297 38.0107L91.1722 18.2719H90.2903V19.9319H89.5381V20.5674H88.9804V20.3599H88.2801V19.4002L87.904 19.0241H87.3593V17.1955H86.5163V18.7258H85.8808L85.5306 19.076V19.6985H84.8951V19.4651H84.532V18.648L84.1819 18.2979H83.689V16.5081H82.7553V18.1941L81.9252 18.5572V19.2835H80.758V18.4275L80.3949 18.0644H79.9151V16.2617H79.0202V18.1033H78.5403L78.0475 18.5961V19.2187H77.023V18.3368L76.7506 18.0644H76.1411V16.5341H75.2592V18.2979H74.8053L74.3514 18.7518V19.3354H73.6899V19.6596H73.1971V19.063L72.8988 18.7647H72.3541V17.2214H71.5371V19.0371H71.0832L70.6552 19.4521V20.3729H69.9808V20.5156H69.5788V19.8541H68.6839V18.2719H67.7501L63.5482 38.1275C63.5482 38.1275 69.8511 35.0279 79.4741 35.0279C89.0841 35.0279 95.5427 38.0107 95.5427 38.0107" fill="white"/>
<path d="M63.211 38.5311L67.5426 18.0271H68.8914V19.6223H69.7862V20.141H70.3958V19.3499L70.9534 18.7922H71.2777V16.9766H72.5616V18.5199H72.9636L73.3916 18.9479V19.4018H73.4305V19.0776H74.0919V18.6236L74.6756 18.04H74.9998V16.2763H76.3356V17.8066H76.8154L77.2175 18.2086V18.9479H77.7751V18.468L78.3977 17.8455H78.7478V16.0039H80.1096V17.8066H80.4597L80.9525 18.2994V19.0257H81.6658V18.3772L82.4829 18.0141V16.2503H83.8835V18.04H84.2337L84.7265 18.5329V19.2202H85.0897V19.4537H85.2712V18.9608L85.764 18.468H86.2569V16.9377H87.5667V18.7663H87.9817L88.4875 19.2721V20.0891H89.1879V20.2966H89.2916V19.6612H90.0438V18.0011H91.3407L95.841 38.3754L95.413 38.1809C95.413 38.1809 88.8896 35.211 79.4352 35.211C69.9808 35.211 63.6778 38.2587 63.613 38.2847L63.185 38.4922L63.211 38.5311ZM67.9187 18.481L63.8464 37.714C65.4157 37.0396 71.2777 34.783 79.4481 34.783C87.6316 34.783 93.6103 36.9748 95.2055 37.6103L90.9776 18.481H90.5107V20.154H89.7715V20.7895H88.7599V20.582H88.0466V19.4926L87.8132 19.2591H87.1388V17.4305H86.7627V18.9608H85.9975L85.777 19.1813V19.9335H84.6747V19.7001H84.3115V18.7404L84.091 18.5199H83.4685V16.7302H82.9887V18.3383L82.1587 18.7015V19.5055H80.5375V18.5069L80.3041 18.2735H79.6946V16.4708H79.2536V18.3124H78.6441L78.2939 18.6755V19.4277H76.8154V18.4161L76.6857 18.2865H75.9335V16.7561H75.5056V18.5199H74.909L74.5977 18.8312V19.5444H73.9363V19.8687H72.9766V19.1424L72.808 18.9738H72.1336V17.4305H71.7705V19.2462H71.1739L70.8886 19.5315V20.582H70.2142V20.7376H69.3583V20.0632H68.4634V18.481H67.9446H67.9187Z" fill="#076D38"/>
<path d="M81.5361 35.2494H77.5027V31.5273H81.5361V35.2494ZM77.9566 34.7955H81.0692V31.9813H77.9566V34.7955Z" fill="#076D38"/>
<path d="M93.9609 66.9302C93.9609 66.9302 88.3842 66.2429 79.5134 72.8052C79.5134 72.8052 71.9006 66.6968 65.3901 66.2559C65.3901 66.2559 76.8029 71.5472 78.3462 73.8427C78.3462 73.8427 76.1933 76.4884 75.3633 76.7867C75.3633 76.7867 74.1053 73.9984 72.8473 75.3601C72.8473 75.3601 72.0822 75.9178 72.7954 76.67C72.7954 76.67 73.5087 77.4351 74.0145 76.9423L74.3388 77.3444C74.3388 77.3444 73.8848 78.0447 73.0548 78.2262C73.0548 78.2262 71.3948 77.3444 71.3689 79.2897C71.3689 79.2897 72.3415 81.4037 75.48 78.6672C75.48 78.6672 76.9066 80.3921 77.9441 80.0938C77.9441 80.0938 79.9154 79.4972 78.2943 78.1355C78.2943 78.1355 77.7496 77.6297 76.9585 78.6024L76.31 78.0447C76.31 78.0447 79.241 75.3212 79.4485 75.1526C79.656 74.984 82.4963 78.0317 82.4963 78.0317L82.0942 78.5764C82.0942 78.5764 80.953 77.3573 80.11 78.8617C80.11 78.8617 80.4083 81.261 82.4444 79.6658L83.456 78.732C83.456 78.732 85.8034 81.1054 87.1262 80.1197C87.1262 80.1197 88.1378 79.2508 87.4375 78.5375C87.4375 78.5375 86.8928 77.7723 86.0757 78.33C86.0757 78.33 85.5051 78.4597 84.5713 77.4351L85.0252 76.9423C85.0252 76.9423 85.9979 77.7464 86.5296 76.4106C86.5296 76.4106 86.9576 75.1915 85.0123 75.2045C85.0123 75.2045 84.3897 75.4898 83.7672 76.9293L80.8362 74.0502C80.8362 74.0502 84.8177 69.8223 93.9868 66.9173" fill="#076D38"/>
<path d="M79.0978 57.3605C79.0978 57.3605 78.2029 58.4759 78.4623 59.8635C78.4623 59.8635 76.6466 57.9701 78.0602 55.8821C78.0602 55.8821 76.6596 56.0507 76.1279 58.9427C76.1279 58.9427 75.1292 56.5305 76.906 54.4036C76.906 54.4036 75.0255 55.5578 74.5327 57.179C74.5327 57.179 74.39 54.2869 76.9708 53.1975C76.9708 53.1975 75.5442 53.1586 74.6883 53.7941C74.6883 53.7941 75.4405 51.5374 78.3585 52.1859C78.3585 52.1859 77.2951 50.8242 76.5947 50.8501C76.5947 50.8501 78.5012 50.6037 79.409 51.5374C79.409 51.5374 79.3053 50.7593 79.837 50.3184C79.837 50.3184 80.3557 51.3818 80.667 51.6023C80.667 51.6023 81.8601 50.7074 82.9495 51.0187C82.9495 51.0187 81.8991 51.7579 81.7305 52.2118C81.7305 52.2118 84.7393 52.134 85.1932 54.3517C85.1932 54.3517 83.4294 53.0548 82.4697 53.405C82.4697 53.405 85.1543 54.3906 85.4266 57.3476C85.4266 57.3476 83.7147 54.7927 82.7939 54.65C82.7939 54.65 84.4021 57.3087 83.4424 58.9168C83.4424 58.9168 82.7809 56.0377 81.925 55.6227C81.925 55.6227 82.327 58.826 81.3155 59.8376C81.3155 59.8376 80.9134 57.5551 80.1353 57.2308L80.0056 66.5556C80.0834 67.3337 80.3039 67.5931 80.3039 67.5931C80.2131 68.0729 80.2909 68.4879 80.2909 68.4879C80.5114 68.7992 80.5243 69.0067 80.5243 69.0067C80.654 69.5255 80.5114 69.9016 80.5114 69.9016C80.6929 70.4203 81.069 70.8224 81.069 70.8224L77.9305 70.9391C78.1899 70.7705 78.566 69.6551 78.566 69.6551C78.3845 69.0845 78.7735 68.2804 78.7735 68.2804C78.7476 67.7617 79.1885 66.5426 79.1885 66.5426L79.1107 57.3735L79.0978 57.3605Z" fill="#076D38"/>
<path d="M79.4346 98.4732C54.0413 98.4732 33.3946 77.8136 33.4076 52.4333C33.4076 27.0529 54.0672 6.40625 79.4605 6.40625C104.841 6.40625 125.488 27.0659 125.488 52.4462C125.488 77.8266 104.828 98.4862 79.4475 98.4732M79.4605 7.62534C54.7546 7.62534 34.6396 27.7143 34.6396 52.4333C34.6396 77.1392 54.7416 97.2541 79.4475 97.2541C104.153 97.2541 124.268 77.1522 124.268 52.4462C124.268 27.7273 104.166 7.62534 79.4605 7.62534Z" fill="white"/>
</g>
<defs>
<clipPath id="clip0_535_12638">
<rect width="159" height="159" fill="white"/>
</clipPath>
</defs>
</svg>
