<svg width="50" height="46" viewBox="0 0 50 46" fill="none" xmlns="http://www.w3.org/2000/svg">
<path d="M48.9876 23C48.9876 35.1121 38.3082 45 25.0456 45C11.783 45 1.10352 35.1121 1.10352 23C1.10352 10.8879 11.783 1 25.0456 1C38.3082 1 48.9876 10.8879 48.9876 23Z" fill="#ECFDF5" stroke="#09A66C"/>
<path d="M38.5438 12.8135V20.252C38.5438 21.7246 37.2497 22.9227 35.659 22.9227H35.54V25.2933C35.54 25.4811 35.4176 25.6505 35.2302 25.723C35.1685 25.7464 35.1035 25.7587 35.0384 25.7587C34.9073 25.7587 34.7794 25.7117 34.6835 25.6229L31.768 22.9237H26.6204C26.3437 22.9237 26.1188 22.7156 26.1188 22.4594C26.1188 22.2023 26.3437 21.9951 26.6204 21.9951H31.9762C32.1096 21.9951 32.2375 22.0441 32.3312 22.1308L34.5368 24.1729V22.4594C34.5368 22.2033 34.7617 21.9951 35.0383 21.9951H35.66C36.6973 21.9951 37.5405 21.2144 37.5405 20.2541L37.5394 12.8138C37.5394 11.8535 36.6962 11.0728 35.6589 11.0728H21.951C20.9148 11.0728 20.0716 11.8535 20.0716 12.8138V20.2523C20.0716 20.7667 20.3174 21.2524 20.7472 21.5871C20.96 21.7524 20.9875 22.0453 20.809 22.2423C20.6304 22.4392 20.314 22.4648 20.1013 22.2994C19.4444 21.7882 19.0674 21.0422 19.0674 20.2533L19.0685 12.8138C19.0685 11.3412 20.3614 10.1431 21.951 10.1431H35.6589C37.2495 10.1431 38.5437 11.3411 38.5437 12.8138L38.5438 12.8135ZM31.4463 25.334C31.7693 25.632 31.9467 26.028 31.9467 26.4484C31.9467 27.0189 31.6182 27.5189 31.1266 27.7944C31.3074 28.0445 31.4121 28.3445 31.4121 28.667C31.4121 29.2691 31.0451 29.7936 30.5061 30.0579C30.667 30.2987 30.7607 30.5824 30.7607 30.8855C30.7607 31.5989 30.2459 32.203 29.5416 32.3958C29.6584 32.6091 29.7234 32.85 29.7234 33.1051C29.7234 33.9725 28.9607 34.6787 28.0226 34.6787H17.2214V34.7134C17.2214 35.3441 16.667 35.8574 15.9858 35.8574H13.0096C12.3284 35.8574 11.7739 35.3441 11.7739 34.7134V26.2474C11.7739 25.6167 12.3284 25.1034 13.0096 25.1034H15.9869C16.5579 25.1034 17.0385 25.4636 17.1807 25.9514C17.3471 25.8494 17.5235 25.7422 17.7109 25.63C19.2309 24.7136 21.5269 23.3288 21.4961 22.199C21.4906 21.9776 21.4785 21.7633 21.4664 21.5551C21.4201 20.7254 21.3793 20.009 21.7871 19.5182C22.1762 19.0518 22.7274 18.8426 23.2984 18.9447C24.1868 19.1018 24.9375 19.9682 25.3574 21.3214C25.7278 22.5154 25.7058 23.7094 25.2946 24.882L30.2461 24.8748H30.2505C30.7014 24.8748 31.1257 25.0381 31.4465 25.335L31.4463 25.334ZM16.2182 34.7133V26.9504C16.1951 26.8708 16.1962 26.7881 16.2182 26.7095V26.2483C16.2182 26.1319 16.1124 26.034 15.9867 26.034H13.0094C12.8837 26.034 12.7779 26.1319 12.7779 26.2483V34.7143C12.7779 34.8306 12.8837 34.9286 13.0094 34.9286H15.9867C16.1124 34.9286 16.2182 34.8306 16.2182 34.7143V34.7133ZM30.9426 26.4483C30.9426 26.2768 30.8699 26.1146 30.7365 25.9921C30.6053 25.8707 30.4322 25.8033 30.2493 25.8033H30.247L24.5647 25.8125H24.5636C24.3938 25.8125 24.2362 25.7329 24.1436 25.6012C24.051 25.4696 24.0367 25.3033 24.105 25.1594C24.6749 23.9674 24.7686 22.7959 24.3916 21.5785C24.029 20.412 23.4734 19.9222 23.1086 19.8579C22.9135 19.8232 22.736 19.8997 22.5806 20.0865C22.3998 20.3039 22.4329 20.8876 22.4681 21.507C22.4803 21.7213 22.4924 21.9428 22.499 22.1765C22.542 23.8246 20.1666 25.2584 18.2575 26.4095C17.8584 26.6503 17.5035 26.8646 17.2224 27.0514V33.75H28.0236C28.4072 33.75 28.7203 33.4612 28.7203 33.105C28.7203 32.7499 28.4083 32.4601 28.0236 32.4601H25.8642C25.5876 32.4601 25.3627 32.2519 25.3627 31.9957C25.3627 31.7386 25.5876 31.5314 25.8642 31.5314H29.0608C29.4444 31.5314 29.7575 31.2426 29.7575 30.8865C29.7575 30.5313 29.4455 30.2415 29.0608 30.2415H25.5866C25.3099 30.2415 25.085 30.0333 25.085 29.7772C25.085 29.52 25.3099 29.3129 25.5866 29.3129H29.7113C30.096 29.3129 30.409 29.0241 30.409 28.6679C30.409 28.3128 30.096 28.0229 29.7113 28.0229H25.0298C24.7531 28.0229 24.5283 27.8147 24.5283 27.5586C24.5283 27.3014 24.7532 27.0943 25.0298 27.0943H30.2469C30.6305 27.0943 30.9435 26.8055 30.9435 26.4493L30.9426 26.4483ZM23.8152 17.82C22.8264 17.82 22.0218 17.0761 22.0218 16.1607C22.0218 15.2463 22.8264 14.5003 23.8152 14.5003C24.8039 14.5003 25.6086 15.2453 25.6086 16.1607C25.6086 17.0761 24.8039 17.82 23.8152 17.82ZM23.8152 16.8904C24.2506 16.8904 24.6044 16.5628 24.6044 16.1607C24.6044 15.7586 24.2506 15.43 23.8152 15.43C23.3798 15.43 23.0259 15.7576 23.0259 16.1607C23.0259 16.5638 23.3798 16.8904 23.8152 16.8904ZM28.8065 17.82C27.8177 17.82 27.013 17.0761 27.013 16.1607C27.013 15.2463 27.8177 14.5003 28.8065 14.5003C29.7952 14.5003 30.5999 15.2453 30.5999 16.1607C30.5999 17.0761 29.7952 17.82 28.8065 17.82ZM28.8065 16.8904C29.2419 16.8904 29.5957 16.5628 29.5957 16.1607C29.5957 15.7586 29.2419 15.43 28.8065 15.43C28.371 15.43 28.0172 15.7576 28.0172 16.1607C28.0172 16.5638 28.371 16.8904 28.8065 16.8904ZM32.0042 16.1607C32.0042 15.2453 32.8089 14.5003 33.7976 14.5003C34.7864 14.5003 35.591 15.2453 35.591 16.1607C35.591 17.0761 34.7864 17.82 33.7976 17.82C32.8089 17.82 32.0042 17.0761 32.0042 16.1607ZM33.0084 16.1607C33.0084 16.5628 33.3622 16.8904 33.7976 16.8904C34.233 16.8904 34.5868 16.5628 34.5868 16.1607C34.5868 15.7586 34.233 15.43 33.7976 15.43C33.3622 15.43 33.0084 15.7576 33.0084 16.1607ZM15.7753 33.1786C15.7753 33.8154 15.2165 34.3328 14.5286 34.3328C13.8419 34.3328 13.282 33.8154 13.282 33.1786C13.282 32.5418 13.8408 32.0244 14.5286 32.0244C15.2165 32.0244 15.7753 32.5418 15.7753 33.1786ZM14.7712 33.1786C14.7712 33.0551 14.662 32.9541 14.5287 32.9541C14.3953 32.9541 14.2862 33.0551 14.2862 33.1786C14.2862 33.3021 14.3953 33.4031 14.5287 33.4031C14.662 33.4031 14.7712 33.3021 14.7712 33.1786Z" fill="#09A66C"/>
</svg>